<mxfile host="app.diagrams.net" modified="2022-10-31T18:39:27.100Z" agent="5.0 (Macintosh; Intel Mac OS X 10_15_7) AppleWebKit/537.36 (KHTML, like Gecko) Chrome/106.0.0.0 Safari/537.36" etag="RQm2hrJO609-uUAcsBwl" version="20.5.1" type="github">
  <diagram id="C5RBs43oDa-KdzZeNtuy" name="Page-1">
    <mxGraphModel dx="3623" dy="1296" grid="1" gridSize="10" guides="1" tooltips="1" connect="1" arrows="1" fold="1" page="1" pageScale="1" pageWidth="827" pageHeight="1169" math="0" shadow="0">
      <root>
        <mxCell id="WIyWlLk6GJQsqaUBKTNV-0" />
        <mxCell id="WIyWlLk6GJQsqaUBKTNV-1" parent="WIyWlLk6GJQsqaUBKTNV-0" />
        <mxCell id="jhk4YRGH4lH5L7MhDq73-5" style="edgeStyle=orthogonalEdgeStyle;rounded=0;orthogonalLoop=1;jettySize=auto;html=1;exitX=0.5;exitY=1;exitDx=0;exitDy=0;entryX=0.5;entryY=0;entryDx=0;entryDy=0;" edge="1" parent="WIyWlLk6GJQsqaUBKTNV-1" source="jhk4YRGH4lH5L7MhDq73-0" target="jhk4YRGH4lH5L7MhDq73-2">
          <mxGeometry relative="1" as="geometry">
            <Array as="points">
              <mxPoint x="685" y="280" />
              <mxPoint x="85" y="280" />
            </Array>
          </mxGeometry>
        </mxCell>
        <mxCell id="jhk4YRGH4lH5L7MhDq73-23" style="edgeStyle=orthogonalEdgeStyle;rounded=0;orthogonalLoop=1;jettySize=auto;html=1;entryX=0.5;entryY=0;entryDx=0;entryDy=0;" edge="1" parent="WIyWlLk6GJQsqaUBKTNV-1" source="jhk4YRGH4lH5L7MhDq73-0" target="jhk4YRGH4lH5L7MhDq73-6">
          <mxGeometry relative="1" as="geometry">
            <Array as="points">
              <mxPoint x="685" y="280" />
              <mxPoint x="235" y="280" />
            </Array>
          </mxGeometry>
        </mxCell>
        <mxCell id="jhk4YRGH4lH5L7MhDq73-24" style="edgeStyle=orthogonalEdgeStyle;rounded=0;orthogonalLoop=1;jettySize=auto;html=1;entryX=0.5;entryY=0;entryDx=0;entryDy=0;" edge="1" parent="WIyWlLk6GJQsqaUBKTNV-1" source="jhk4YRGH4lH5L7MhDq73-0" target="jhk4YRGH4lH5L7MhDq73-10">
          <mxGeometry relative="1" as="geometry">
            <Array as="points">
              <mxPoint x="685" y="280" />
              <mxPoint x="385" y="280" />
            </Array>
          </mxGeometry>
        </mxCell>
        <mxCell id="jhk4YRGH4lH5L7MhDq73-25" style="edgeStyle=orthogonalEdgeStyle;rounded=0;orthogonalLoop=1;jettySize=auto;html=1;" edge="1" parent="WIyWlLk6GJQsqaUBKTNV-1" source="jhk4YRGH4lH5L7MhDq73-0" target="jhk4YRGH4lH5L7MhDq73-11">
          <mxGeometry relative="1" as="geometry">
            <Array as="points">
              <mxPoint x="685" y="280" />
              <mxPoint x="535" y="280" />
            </Array>
          </mxGeometry>
        </mxCell>
        <mxCell id="jhk4YRGH4lH5L7MhDq73-26" style="edgeStyle=orthogonalEdgeStyle;rounded=0;orthogonalLoop=1;jettySize=auto;html=1;entryX=0.5;entryY=0;entryDx=0;entryDy=0;" edge="1" parent="WIyWlLk6GJQsqaUBKTNV-1" source="jhk4YRGH4lH5L7MhDq73-0" target="jhk4YRGH4lH5L7MhDq73-14">
          <mxGeometry relative="1" as="geometry" />
        </mxCell>
        <mxCell id="jhk4YRGH4lH5L7MhDq73-27" style="edgeStyle=orthogonalEdgeStyle;rounded=0;orthogonalLoop=1;jettySize=auto;html=1;entryX=0.5;entryY=0;entryDx=0;entryDy=0;" edge="1" parent="WIyWlLk6GJQsqaUBKTNV-1" source="jhk4YRGH4lH5L7MhDq73-0" target="jhk4YRGH4lH5L7MhDq73-15">
          <mxGeometry relative="1" as="geometry">
            <Array as="points">
              <mxPoint x="685" y="280" />
              <mxPoint x="835" y="280" />
            </Array>
          </mxGeometry>
        </mxCell>
        <mxCell id="jhk4YRGH4lH5L7MhDq73-28" style="edgeStyle=orthogonalEdgeStyle;rounded=0;orthogonalLoop=1;jettySize=auto;html=1;entryX=0.5;entryY=0;entryDx=0;entryDy=0;" edge="1" parent="WIyWlLk6GJQsqaUBKTNV-1" source="jhk4YRGH4lH5L7MhDq73-0" target="jhk4YRGH4lH5L7MhDq73-16">
          <mxGeometry relative="1" as="geometry">
            <Array as="points">
              <mxPoint x="685" y="280" />
              <mxPoint x="985" y="280" />
            </Array>
          </mxGeometry>
        </mxCell>
        <mxCell id="jhk4YRGH4lH5L7MhDq73-29" style="edgeStyle=orthogonalEdgeStyle;rounded=0;orthogonalLoop=1;jettySize=auto;html=1;" edge="1" parent="WIyWlLk6GJQsqaUBKTNV-1" source="jhk4YRGH4lH5L7MhDq73-0" target="jhk4YRGH4lH5L7MhDq73-17">
          <mxGeometry relative="1" as="geometry">
            <Array as="points">
              <mxPoint x="685" y="280" />
              <mxPoint x="1135" y="280" />
            </Array>
          </mxGeometry>
        </mxCell>
        <mxCell id="jhk4YRGH4lH5L7MhDq73-30" style="edgeStyle=orthogonalEdgeStyle;rounded=0;orthogonalLoop=1;jettySize=auto;html=1;" edge="1" parent="WIyWlLk6GJQsqaUBKTNV-1" source="jhk4YRGH4lH5L7MhDq73-0" target="jhk4YRGH4lH5L7MhDq73-18">
          <mxGeometry relative="1" as="geometry">
            <Array as="points">
              <mxPoint x="685" y="280" />
              <mxPoint x="1285" y="280" />
            </Array>
          </mxGeometry>
        </mxCell>
        <mxCell id="jhk4YRGH4lH5L7MhDq73-0" value="Building" style="html=1;" vertex="1" parent="WIyWlLk6GJQsqaUBKTNV-1">
          <mxGeometry x="630" y="190" width="110" height="50" as="geometry" />
        </mxCell>
        <mxCell id="jhk4YRGH4lH5L7MhDq73-2" value="Cookie Factory" style="html=1;" vertex="1" parent="WIyWlLk6GJQsqaUBKTNV-1">
          <mxGeometry x="30" y="310" width="110" height="50" as="geometry" />
        </mxCell>
        <mxCell id="jhk4YRGH4lH5L7MhDq73-6" value="Grandma" style="html=1;" vertex="1" parent="WIyWlLk6GJQsqaUBKTNV-1">
          <mxGeometry x="180" y="310" width="110" height="50" as="geometry" />
        </mxCell>
        <mxCell id="jhk4YRGH4lH5L7MhDq73-10" value="Hungry Baby" style="html=1;" vertex="1" parent="WIyWlLk6GJQsqaUBKTNV-1">
          <mxGeometry x="330" y="310" width="110" height="50" as="geometry" />
        </mxCell>
        <mxCell id="jhk4YRGH4lH5L7MhDq73-11" value="Hungry Baby" style="html=1;" vertex="1" parent="WIyWlLk6GJQsqaUBKTNV-1">
          <mxGeometry x="480" y="310" width="110" height="50" as="geometry" />
        </mxCell>
        <mxCell id="jhk4YRGH4lH5L7MhDq73-14" value="Clicker" style="html=1;" vertex="1" parent="WIyWlLk6GJQsqaUBKTNV-1">
          <mxGeometry x="630" y="310" width="110" height="50" as="geometry" />
        </mxCell>
        <mxCell id="jhk4YRGH4lH5L7MhDq73-15" value="Alchemy Laboratory" style="html=1;" vertex="1" parent="WIyWlLk6GJQsqaUBKTNV-1">
          <mxGeometry x="780" y="310" width="110" height="50" as="geometry" />
        </mxCell>
        <mxCell id="jhk4YRGH4lH5L7MhDq73-16" value="3D Printer" style="html=1;" vertex="1" parent="WIyWlLk6GJQsqaUBKTNV-1">
          <mxGeometry x="930" y="310" width="110" height="50" as="geometry" />
        </mxCell>
        <mxCell id="jhk4YRGH4lH5L7MhDq73-17" value="Cookie God" style="html=1;" vertex="1" parent="WIyWlLk6GJQsqaUBKTNV-1">
          <mxGeometry x="1080" y="310" width="110" height="50" as="geometry" />
        </mxCell>
        <mxCell id="jhk4YRGH4lH5L7MhDq73-18" value="Cookie Rocket" style="html=1;" vertex="1" parent="WIyWlLk6GJQsqaUBKTNV-1">
          <mxGeometry x="1230" y="310" width="110" height="50" as="geometry" />
        </mxCell>
        <mxCell id="jhk4YRGH4lH5L7MhDq73-31" style="edgeStyle=orthogonalEdgeStyle;rounded=0;orthogonalLoop=1;jettySize=auto;html=1;exitX=0.5;exitY=1;exitDx=0;exitDy=0;entryX=0.5;entryY=0;entryDx=0;entryDy=0;" edge="1" source="jhk4YRGH4lH5L7MhDq73-40" target="jhk4YRGH4lH5L7MhDq73-41" parent="WIyWlLk6GJQsqaUBKTNV-1">
          <mxGeometry relative="1" as="geometry">
            <Array as="points">
              <mxPoint x="695" y="610" />
              <mxPoint x="95" y="610" />
            </Array>
          </mxGeometry>
        </mxCell>
        <mxCell id="jhk4YRGH4lH5L7MhDq73-32" style="edgeStyle=orthogonalEdgeStyle;rounded=0;orthogonalLoop=1;jettySize=auto;html=1;entryX=0.5;entryY=0;entryDx=0;entryDy=0;" edge="1" source="jhk4YRGH4lH5L7MhDq73-40" target="jhk4YRGH4lH5L7MhDq73-42" parent="WIyWlLk6GJQsqaUBKTNV-1">
          <mxGeometry relative="1" as="geometry">
            <Array as="points">
              <mxPoint x="695" y="610" />
              <mxPoint x="245" y="610" />
            </Array>
          </mxGeometry>
        </mxCell>
        <mxCell id="jhk4YRGH4lH5L7MhDq73-33" style="edgeStyle=orthogonalEdgeStyle;rounded=0;orthogonalLoop=1;jettySize=auto;html=1;entryX=0.5;entryY=0;entryDx=0;entryDy=0;" edge="1" source="jhk4YRGH4lH5L7MhDq73-40" target="jhk4YRGH4lH5L7MhDq73-43" parent="WIyWlLk6GJQsqaUBKTNV-1">
          <mxGeometry relative="1" as="geometry">
            <Array as="points">
              <mxPoint x="695" y="610" />
              <mxPoint x="395" y="610" />
            </Array>
          </mxGeometry>
        </mxCell>
        <mxCell id="jhk4YRGH4lH5L7MhDq73-34" style="edgeStyle=orthogonalEdgeStyle;rounded=0;orthogonalLoop=1;jettySize=auto;html=1;" edge="1" source="jhk4YRGH4lH5L7MhDq73-40" target="jhk4YRGH4lH5L7MhDq73-44" parent="WIyWlLk6GJQsqaUBKTNV-1">
          <mxGeometry relative="1" as="geometry">
            <Array as="points">
              <mxPoint x="695" y="610" />
              <mxPoint x="545" y="610" />
            </Array>
          </mxGeometry>
        </mxCell>
        <mxCell id="jhk4YRGH4lH5L7MhDq73-35" style="edgeStyle=orthogonalEdgeStyle;rounded=0;orthogonalLoop=1;jettySize=auto;html=1;entryX=0.5;entryY=0;entryDx=0;entryDy=0;" edge="1" source="jhk4YRGH4lH5L7MhDq73-40" target="jhk4YRGH4lH5L7MhDq73-45" parent="WIyWlLk6GJQsqaUBKTNV-1">
          <mxGeometry relative="1" as="geometry" />
        </mxCell>
        <mxCell id="jhk4YRGH4lH5L7MhDq73-36" style="edgeStyle=orthogonalEdgeStyle;rounded=0;orthogonalLoop=1;jettySize=auto;html=1;entryX=0.5;entryY=0;entryDx=0;entryDy=0;" edge="1" source="jhk4YRGH4lH5L7MhDq73-40" target="jhk4YRGH4lH5L7MhDq73-46" parent="WIyWlLk6GJQsqaUBKTNV-1">
          <mxGeometry relative="1" as="geometry">
            <Array as="points">
              <mxPoint x="695" y="610" />
              <mxPoint x="845" y="610" />
            </Array>
          </mxGeometry>
        </mxCell>
        <mxCell id="jhk4YRGH4lH5L7MhDq73-37" style="edgeStyle=orthogonalEdgeStyle;rounded=0;orthogonalLoop=1;jettySize=auto;html=1;entryX=0.5;entryY=0;entryDx=0;entryDy=0;" edge="1" source="jhk4YRGH4lH5L7MhDq73-40" target="jhk4YRGH4lH5L7MhDq73-47" parent="WIyWlLk6GJQsqaUBKTNV-1">
          <mxGeometry relative="1" as="geometry">
            <Array as="points">
              <mxPoint x="695" y="610" />
              <mxPoint x="995" y="610" />
            </Array>
          </mxGeometry>
        </mxCell>
        <mxCell id="jhk4YRGH4lH5L7MhDq73-38" style="edgeStyle=orthogonalEdgeStyle;rounded=0;orthogonalLoop=1;jettySize=auto;html=1;" edge="1" source="jhk4YRGH4lH5L7MhDq73-40" target="jhk4YRGH4lH5L7MhDq73-48" parent="WIyWlLk6GJQsqaUBKTNV-1">
          <mxGeometry relative="1" as="geometry">
            <Array as="points">
              <mxPoint x="695" y="610" />
              <mxPoint x="1145" y="610" />
            </Array>
          </mxGeometry>
        </mxCell>
        <mxCell id="jhk4YRGH4lH5L7MhDq73-39" style="edgeStyle=orthogonalEdgeStyle;rounded=0;orthogonalLoop=1;jettySize=auto;html=1;" edge="1" source="jhk4YRGH4lH5L7MhDq73-40" target="jhk4YRGH4lH5L7MhDq73-49" parent="WIyWlLk6GJQsqaUBKTNV-1">
          <mxGeometry relative="1" as="geometry">
            <Array as="points">
              <mxPoint x="695" y="610" />
              <mxPoint x="1295" y="610" />
            </Array>
          </mxGeometry>
        </mxCell>
        <mxCell id="jhk4YRGH4lH5L7MhDq73-52" style="edgeStyle=orthogonalEdgeStyle;rounded=0;orthogonalLoop=1;jettySize=auto;html=1;entryX=0.5;entryY=0;entryDx=0;entryDy=0;" edge="1" parent="WIyWlLk6GJQsqaUBKTNV-1" source="jhk4YRGH4lH5L7MhDq73-40" target="jhk4YRGH4lH5L7MhDq73-51">
          <mxGeometry relative="1" as="geometry">
            <Array as="points">
              <mxPoint x="695" y="610" />
              <mxPoint x="-55" y="610" />
            </Array>
          </mxGeometry>
        </mxCell>
        <mxCell id="jhk4YRGH4lH5L7MhDq73-53" style="edgeStyle=orthogonalEdgeStyle;rounded=0;orthogonalLoop=1;jettySize=auto;html=1;entryX=0.5;entryY=0;entryDx=0;entryDy=0;" edge="1" parent="WIyWlLk6GJQsqaUBKTNV-1" source="jhk4YRGH4lH5L7MhDq73-40" target="jhk4YRGH4lH5L7MhDq73-50">
          <mxGeometry relative="1" as="geometry">
            <Array as="points">
              <mxPoint x="695" y="610" />
              <mxPoint x="1435" y="610" />
            </Array>
          </mxGeometry>
        </mxCell>
        <mxCell id="jhk4YRGH4lH5L7MhDq73-40" value="Powerup" style="html=1;" vertex="1" parent="WIyWlLk6GJQsqaUBKTNV-1">
          <mxGeometry x="640" y="520" width="110" height="50" as="geometry" />
        </mxCell>
        <mxCell id="jhk4YRGH4lH5L7MhDq73-41" value="Cookie Upgrade" style="html=1;" vertex="1" parent="WIyWlLk6GJQsqaUBKTNV-1">
          <mxGeometry x="40" y="640" width="110" height="50" as="geometry" />
        </mxCell>
        <mxCell id="jhk4YRGH4lH5L7MhDq73-42" value="Grandma Revolution" style="html=1;" vertex="1" parent="WIyWlLk6GJQsqaUBKTNV-1">
          <mxGeometry x="190" y="640" width="110" height="50" as="geometry" />
        </mxCell>
        <mxCell id="jhk4YRGH4lH5L7MhDq73-43" value="Lag" style="html=1;" vertex="1" parent="WIyWlLk6GJQsqaUBKTNV-1">
          <mxGeometry x="340" y="640" width="110" height="50" as="geometry" />
        </mxCell>
        <mxCell id="jhk4YRGH4lH5L7MhDq73-44" value="Cookie Monster" style="html=1;" vertex="1" parent="WIyWlLk6GJQsqaUBKTNV-1">
          <mxGeometry x="490" y="640" width="110" height="50" as="geometry" />
        </mxCell>
        <mxCell id="jhk4YRGH4lH5L7MhDq73-45" value="Steal Shipment" style="html=1;" vertex="1" parent="WIyWlLk6GJQsqaUBKTNV-1">
          <mxGeometry x="640" y="640" width="110" height="50" as="geometry" />
        </mxCell>
        <mxCell id="jhk4YRGH4lH5L7MhDq73-46" value="Reverse Dementia" style="html=1;" vertex="1" parent="WIyWlLk6GJQsqaUBKTNV-1">
          <mxGeometry x="790" y="640" width="110" height="50" as="geometry" />
        </mxCell>
        <mxCell id="jhk4YRGH4lH5L7MhDq73-47" value="Gingerbread Man" style="html=1;" vertex="1" parent="WIyWlLk6GJQsqaUBKTNV-1">
          <mxGeometry x="940" y="640" width="110" height="50" as="geometry" />
        </mxCell>
        <mxCell id="jhk4YRGH4lH5L7MhDq73-48" value="Hand Cream" style="html=1;" vertex="1" parent="WIyWlLk6GJQsqaUBKTNV-1">
          <mxGeometry x="1090" y="640" width="110" height="50" as="geometry" />
        </mxCell>
        <mxCell id="jhk4YRGH4lH5L7MhDq73-49" value="Youth Potion" style="html=1;" vertex="1" parent="WIyWlLk6GJQsqaUBKTNV-1">
          <mxGeometry x="1240" y="640" width="110" height="50" as="geometry" />
        </mxCell>
        <mxCell id="jhk4YRGH4lH5L7MhDq73-50" value="Lucky Clover" style="html=1;" vertex="1" parent="WIyWlLk6GJQsqaUBKTNV-1">
          <mxGeometry x="1380" y="640" width="110" height="50" as="geometry" />
        </mxCell>
        <mxCell id="jhk4YRGH4lH5L7MhDq73-51" value="Milk Bottles" style="html=1;" vertex="1" parent="WIyWlLk6GJQsqaUBKTNV-1">
          <mxGeometry x="-110" y="640" width="110" height="50" as="geometry" />
        </mxCell>
      </root>
    </mxGraphModel>
  </diagram>
</mxfile>
